<svg width="16" height="13" viewBox="0 0 16 13" fill="none"
  xmlns="http://www.w3.org/2000/svg">
  <mask id="mask0_103_2727" style="mask-type:luminance" maskUnits="userSpaceOnUse" x="0" y="0" width="16" height="13">
    <rect y="0.5" width="16" height="12" fill="white"/>
  </mask>
  <g mask="url(#mask0_103_2727)">
    <path fill-rule="evenodd" clip-rule="evenodd" d="M0 0.5V12.5H16V0.5H0Z" fill="#F7FCFF"/>
    <mask id="mask1_103_2727" style="mask-type:luminance" maskUnits="userSpaceOnUse" x="0" y="0" width="16" height="13">
      <path fill-rule="evenodd" clip-rule="evenodd" d="M0 0.5V12.5H16V0.5H0Z" fill="white"/>
    </mask>
    <g mask="url(#mask1_103_2727)">
      <path fill-rule="evenodd" clip-rule="evenodd" d="M0 0.5V4.5H16V0.5H0Z" fill="#BF2714"/>
      <path fill-rule="evenodd" clip-rule="evenodd" d="M0 8.5V12.5H16V8.5H0Z" fill="#272727"/>
      <path fill-rule="evenodd" clip-rule="evenodd" d="M2.66831 6.9056C3.12311 7.5583 2.5 8 2.5 8C2.5 8 3.04475 8 3.25337 7.56282H7.71206V6.59991C7.71206 6.59991 7.6188 6.13749 7.22178 6.13749C6.82476 6.13749 6.7353 6.59991 6.7353 6.59991H5.16706L6.68441 5.26043L6.38939 5L4.70401 6.48781V6.80326H7.09656V6.61756C7.09656 6.61756 7.10999 6.51006 7.22178 6.51006C7.33356 6.51006 7.30635 6.61756 7.30635 6.61756V7.01419H4.29131V6.47184L3.96484 6.61756V7.01419C3.96484 7.01419 3.56501 6.9056 3.31233 6.9056C3.05965 6.9056 3.04475 6.61756 3.04475 6.61756L2.66831 6.9056ZM8.72358 6.94289L8.9681 7.55177H7.99512V5.10742L8.40553 5.2388V6.94289H8.72358ZM13.2558 6.94289L13.5003 7.55177H12.5273V5.10742L12.9378 5.2388V6.94289H13.2558ZM12.0507 5.13248L11.7972 5.30407V6.94097H11.539V5.62814L11.1136 5.8734V6.94097H10.8281V6.19975L10.5047 6.40788V6.6091C10.5047 6.6091 9.88267 6.65199 9.88267 7.53142H12.0482L12.0507 5.13248ZM3.74589 7.98282C3.82411 7.98282 3.88752 7.92685 3.88752 7.8578C3.88752 7.78875 3.82411 7.73277 3.74589 7.73277C3.66767 7.73277 3.60426 7.78875 3.60426 7.8578C3.60426 7.92685 3.66767 7.98282 3.74589 7.98282ZM10.9573 5.32083C10.8473 5.46579 10.5136 5.32083 10.5136 5.32083L11.4599 5.2112C11.3621 5.40199 10.9573 5.32083 10.9573 5.32083Z" fill="#009C4E"/>
      <path d="M2.5 8L2.35542 7.79604L1.71502 8.25H2.5V8ZM2.66831 6.9056L2.51639 6.70706L2.32651 6.85236L2.4632 7.04853L2.66831 6.9056ZM3.25337 7.56282V7.31282H3.09567L3.02775 7.45515L3.25337 7.56282ZM7.71206 7.56282V7.81282H7.96206V7.56282H7.71206ZM7.71206 6.59991H7.96206V6.57495L7.95712 6.55048L7.71206 6.59991ZM6.7353 6.59991V6.84991H6.94157L6.98075 6.64739L6.7353 6.59991ZM5.16706 6.59991L5.00161 6.41249L4.5061 6.84991H5.16706V6.59991ZM6.68441 5.26043L6.84986 5.44785L7.06217 5.26043L6.84986 5.07301L6.68441 5.26043ZM6.38939 5L6.55484 4.81258L6.38939 4.66653L6.22394 4.81258L6.38939 5ZM4.70401 6.48781L4.53856 6.30039L4.45401 6.37502V6.48781H4.70401ZM4.70401 6.80326H4.45401V7.05326H4.70401V6.80326ZM7.09656 6.80326V7.05326H7.34656V6.80326H7.09656ZM7.09656 6.61756L6.84849 6.58655L6.84656 6.602V6.61756H7.09656ZM7.30635 6.61756L7.064 6.55621L7.05635 6.58641V6.61756H7.30635ZM7.30635 7.01419V7.26419H7.55635V7.01419H7.30635ZM4.29131 7.01419H4.04131V7.26419H4.29131V7.01419ZM4.29131 6.47184H4.54131V6.08649L4.18941 6.24355L4.29131 6.47184ZM3.96484 6.61756L3.86295 6.38926L3.71484 6.45537V6.61756H3.96484ZM3.96484 7.01419L3.89932 7.25545L4.21484 7.34114V7.01419H3.96484ZM3.04475 6.61756L3.29441 6.60464L3.26987 6.1305L2.89282 6.41901L3.04475 6.61756ZM8.9681 7.55177V7.80177H9.3379L9.20009 7.4586L8.9681 7.55177ZM8.72358 6.94289L8.95557 6.84972L8.89259 6.69289H8.72358V6.94289ZM7.99512 7.55177H7.74512V7.80177H7.99512V7.55177ZM7.99512 5.10742L8.07134 4.86932L7.74512 4.7649V5.10742H7.99512ZM8.40553 5.2388H8.65553V5.05633L8.48175 5.0007L8.40553 5.2388ZM8.40553 6.94289H8.15553V7.19289H8.40553V6.94289ZM13.5003 7.55177V7.80177H13.8701L13.7323 7.4586L13.5003 7.55177ZM13.2558 6.94289L13.4878 6.84972L13.4248 6.69289H13.2558V6.94289ZM12.5273 7.55177H12.2773V7.80177H12.5273V7.55177ZM12.5273 5.10742L12.6036 4.86932L12.2773 4.7649V5.10742H12.5273ZM12.9378 5.2388H13.1878V5.05633L13.014 5.0007L12.9378 5.2388ZM12.9378 6.94289H12.6878V7.19289H12.9378V6.94289ZM11.7972 5.30407L11.6571 5.09704L11.5472 5.17141V5.30407H11.7972ZM12.0507 5.13248L12.3007 5.13274L12.3012 4.66105L11.9106 4.92545L12.0507 5.13248ZM11.7972 6.94097V7.19097H12.0472V6.94097H11.7972ZM11.539 6.94097H11.289V7.19097H11.539V6.94097ZM11.539 5.62814H11.789V5.19544L11.4141 5.41156L11.539 5.62814ZM11.1136 5.8734L10.9887 5.65682L10.8636 5.72896V5.8734H11.1136ZM11.1136 6.94097V7.19097H11.3636V6.94097H11.1136ZM10.8281 6.94097H10.5781V7.19097H10.8281V6.94097ZM10.8281 6.19975H11.0781V5.74155L10.6928 5.98953L10.8281 6.19975ZM10.5047 6.40788L10.3694 6.19766L10.2547 6.27148V6.40788H10.5047ZM10.5047 6.6091L10.5219 6.85851L10.7547 6.84246V6.6091H10.5047ZM9.88267 7.53142H9.63267V7.78142H9.88267V7.53142ZM12.0482 7.53142V7.78142H12.298L12.2982 7.53168L12.0482 7.53142ZM10.5136 5.32083L10.4848 5.07249L9.56078 5.17954L10.414 5.55013L10.5136 5.32083ZM10.9573 5.32083L11.0064 5.07571L10.8528 5.04491L10.7581 5.16975L10.9573 5.32083ZM11.4599 5.2112L11.6824 5.32517L11.8955 4.90905L11.4311 4.96286L11.4599 5.2112ZM2.5 8C2.64458 8.20396 2.64468 8.20388 2.64479 8.2038C2.64483 8.20377 2.64494 8.2037 2.64502 8.20364C2.64518 8.20353 2.64535 8.20341 2.64552 8.20328C2.64588 8.20303 2.64627 8.20274 2.64671 8.20243C2.64757 8.20181 2.64859 8.20107 2.64975 8.20021C2.65208 8.1985 2.655 8.19633 2.65845 8.1937C2.66534 8.18844 2.67441 8.18133 2.68519 8.17242C2.70668 8.15465 2.73538 8.1294 2.76754 8.09705C2.83107 8.03316 2.91247 7.93719 2.97694 7.81206C3.04201 7.68578 3.09136 7.5265 3.08367 7.34157C3.07592 7.15534 3.01099 6.96009 2.87343 6.76268L2.4632 7.04853C2.55304 7.17746 2.58077 7.28219 2.5841 7.36235C2.58749 7.44381 2.56633 7.51733 2.53247 7.58306C2.49801 7.64994 2.45207 7.7052 2.41297 7.74452C2.39382 7.76378 2.37739 7.77814 2.36659 7.78707C2.36122 7.79151 2.35733 7.79453 2.35532 7.79606C2.35432 7.79683 2.35379 7.79721 2.35379 7.79721C2.35379 7.79721 2.35392 7.79712 2.35419 7.79692C2.35433 7.79683 2.3545 7.7967 2.3547 7.79656C2.3548 7.79648 2.35492 7.79641 2.35504 7.79632C2.3551 7.79628 2.35519 7.79621 2.35522 7.79619C2.35532 7.79612 2.35542 7.79604 2.5 8ZM3.02775 7.45515C2.96288 7.59109 2.84378 7.66629 2.71866 7.70843C2.65698 7.7292 2.59932 7.73983 2.55719 7.74512C2.53639 7.74774 2.52009 7.74897 2.50989 7.74953C2.5048 7.74982 2.5013 7.74993 2.49957 7.74998C2.4987 7.75 2.49829 7.75001 2.49835 7.75001C2.49838 7.75001 2.49853 7.75001 2.49881 7.75C2.49894 7.75 2.49911 7.75 2.49931 7.75C2.49941 7.75 2.49952 7.75 2.49963 7.75C2.49969 7.75 2.49978 7.75 2.49981 7.75C2.4999 7.75 2.5 7.75 2.5 8C2.5 8.25 2.5001 8.25 2.5002 8.25C2.50024 8.25 2.50034 8.25 2.50042 8.25C2.50057 8.25 2.50072 8.25 2.50089 8.25C2.50122 8.25 2.50158 8.25 2.50198 8.24999C2.50278 8.24999 2.50372 8.24998 2.50478 8.24997C2.50692 8.24994 2.50959 8.24989 2.51277 8.24981C2.51912 8.24964 2.52752 8.24933 2.53774 8.24876C2.55814 8.24762 2.58604 8.24543 2.61956 8.24122C2.68609 8.23285 2.77766 8.21615 2.87824 8.18228C3.07765 8.11512 3.33524 7.97173 3.479 7.67049L3.02775 7.45515ZM7.71206 7.31282H3.25337V7.81282H7.71206V7.31282ZM7.46206 6.59991V7.56282H7.96206V6.59991H7.46206ZM7.22178 6.38749C7.30392 6.38749 7.35812 6.4288 7.40437 6.5021C7.42775 6.53917 7.44428 6.57824 7.45493 6.60914C7.46012 6.62417 7.46354 6.63619 7.4655 6.64362C7.46647 6.64731 7.46705 6.64978 7.46729 6.65082C7.46741 6.65133 7.46744 6.65149 7.46739 6.65125C7.46736 6.65113 7.46732 6.65091 7.46725 6.65059C7.46722 6.65043 7.46718 6.65025 7.46713 6.65004C7.46711 6.64993 7.46709 6.64982 7.46707 6.6497C7.46705 6.64964 7.46704 6.64955 7.46703 6.64952C7.46701 6.64943 7.46699 6.64933 7.71206 6.59991C7.95712 6.55048 7.9571 6.55038 7.95708 6.55028C7.95707 6.55024 7.95705 6.55014 7.95704 6.55007C7.95701 6.54992 7.95698 6.54977 7.95694 6.5496C7.95688 6.54928 7.9568 6.54893 7.95673 6.54855C7.95657 6.54778 7.95638 6.5469 7.95617 6.54591C7.95574 6.54392 7.9552 6.54148 7.95454 6.53861C7.95322 6.53287 7.95141 6.52541 7.94905 6.51645C7.94436 6.49859 7.93739 6.47449 7.92763 6.44617C7.90839 6.39037 7.87679 6.31384 7.82723 6.23529C7.7276 6.0774 7.53666 5.88749 7.22178 5.88749V6.38749ZM6.7353 6.59991C6.98075 6.64739 6.98073 6.64749 6.98071 6.64758C6.9807 6.64761 6.98069 6.64771 6.98068 6.64777C6.98065 6.64789 6.98063 6.648 6.98061 6.6481C6.98057 6.64832 6.98053 6.6485 6.9805 6.64866C6.98043 6.64898 6.98039 6.6492 6.98036 6.64933C6.98031 6.64957 6.98034 6.64942 6.98045 6.64891C6.98068 6.64788 6.98124 6.64543 6.98218 6.64176C6.98406 6.63436 6.98738 6.62238 6.99242 6.6074C7.00279 6.57658 7.01893 6.53769 7.04187 6.50086C7.08708 6.42826 7.1401 6.38749 7.22178 6.38749V5.88749C6.90643 5.88749 6.71622 6.07793 6.61744 6.23654C6.56839 6.31531 6.53735 6.39203 6.51854 6.44791C6.50899 6.47628 6.50222 6.50042 6.49766 6.51831C6.49537 6.52729 6.49362 6.53477 6.49235 6.54051C6.49171 6.54339 6.49119 6.54584 6.49077 6.54783C6.49057 6.54883 6.49039 6.54971 6.49023 6.55048C6.49016 6.55086 6.49009 6.55121 6.49002 6.55154C6.48999 6.5517 6.48996 6.55186 6.48993 6.552C6.48992 6.55208 6.4899 6.55218 6.48989 6.55222C6.48987 6.55232 6.48985 6.55242 6.7353 6.59991ZM5.16706 6.84991H6.7353V6.34991H5.16706V6.84991ZM6.51896 5.07301L5.00161 6.41249L5.33251 6.78733L6.84986 5.44785L6.51896 5.07301ZM6.22394 5.18742L6.51896 5.44785L6.84986 5.07301L6.55484 4.81258L6.22394 5.18742ZM4.86946 6.67523L6.55484 5.18742L6.22394 4.81258L4.53856 6.30039L4.86946 6.67523ZM4.95401 6.80326V6.48781H4.45401V6.80326H4.95401ZM7.09656 6.55326H4.70401V7.05326H7.09656V6.55326ZM6.84656 6.61756V6.80326H7.34656V6.61756H6.84656ZM7.22178 6.26006C7.0675 6.26006 6.96272 6.34214 6.90715 6.42831C6.88239 6.46671 6.8686 6.50328 6.86084 6.5293C6.85683 6.54273 6.85407 6.55456 6.85218 6.56409C6.85122 6.56888 6.85046 6.57319 6.84986 6.57694C6.84957 6.57882 6.8493 6.58056 6.84908 6.58216C6.84896 6.58296 6.84886 6.58373 6.84876 6.58446C6.84871 6.58483 6.84866 6.58519 6.84862 6.58554C6.8486 6.58571 6.84858 6.58588 6.84855 6.58605C6.84854 6.58614 6.84853 6.58626 6.84852 6.58631C6.84851 6.58643 6.84849 6.58655 7.09656 6.61756C7.34463 6.64856 7.34462 6.64868 7.3446 6.64881C7.34459 6.64885 7.34458 6.64897 7.34457 6.64905C7.34455 6.64922 7.34453 6.64938 7.34451 6.64954C7.34446 6.64986 7.34442 6.65018 7.34438 6.65049C7.3443 6.65112 7.34421 6.65174 7.34413 6.65233C7.34396 6.65353 7.34379 6.65467 7.34361 6.65576C7.34327 6.65793 7.34291 6.65993 7.34254 6.66179C7.34181 6.66544 7.34097 6.66887 7.33998 6.67222C7.33823 6.67809 7.33478 6.68778 7.32735 6.6993C7.31948 6.71151 7.30535 6.72837 7.28266 6.74184C7.25862 6.7561 7.23587 6.76006 7.22178 6.76006V6.26006ZM7.30635 6.61756C7.54871 6.6789 7.54874 6.67879 7.54877 6.67867C7.54878 6.67863 7.54881 6.67851 7.54883 6.67843C7.54887 6.67828 7.54891 6.67811 7.54895 6.67795C7.54903 6.67762 7.54911 6.67729 7.5492 6.67694C7.54937 6.67625 7.54954 6.67552 7.54972 6.67475C7.55009 6.67322 7.55047 6.67154 7.55087 6.66971C7.55167 6.66606 7.55253 6.66178 7.5534 6.65695C7.5551 6.64741 7.55691 6.63507 7.55806 6.62065C7.5602 6.59393 7.56096 6.54969 7.54753 6.49936C7.53344 6.44655 7.50138 6.37982 7.43409 6.32832C7.36692 6.27692 7.28995 6.26006 7.22178 6.26006V6.76006C7.2095 6.76006 7.17105 6.75664 7.13022 6.72539C7.08926 6.69405 7.07135 6.65419 7.06443 6.62826C7.05818 6.6048 7.05913 6.58743 7.05965 6.58087C7.06 6.57653 7.06055 6.57258 7.06121 6.56892C7.06155 6.56703 7.06194 6.56507 7.06239 6.56299C7.06262 6.56195 7.06286 6.56087 7.06313 6.55974C7.06326 6.55918 7.0634 6.55861 7.06355 6.55802C7.06362 6.55772 7.06369 6.55743 7.06377 6.55712C7.0638 6.55697 7.06384 6.55682 7.06388 6.55667C7.0639 6.55659 7.06393 6.55648 7.06394 6.55644C7.06397 6.55633 7.064 6.55621 7.30635 6.61756ZM7.55635 7.01419V6.61756H7.05635V7.01419H7.55635ZM4.29131 7.26419H7.30635V6.76419H4.29131V7.26419ZM4.04131 6.47184V7.01419H4.54131V6.47184H4.04131ZM4.06674 6.84585L4.3932 6.70014L4.18941 6.24355L3.86295 6.38926L4.06674 6.84585ZM4.21484 7.01419V6.61756H3.71484V7.01419H4.21484ZM3.31233 7.1556C3.41159 7.1556 3.55366 7.17808 3.68281 7.20474C3.74484 7.21754 3.7996 7.23038 3.83877 7.24C3.8583 7.2448 3.87383 7.24877 3.88429 7.25149C3.88952 7.25285 3.89348 7.25389 3.89603 7.25457C3.8973 7.25491 3.89823 7.25516 3.89878 7.25531C3.89906 7.25538 3.89924 7.25543 3.89933 7.25545C3.89938 7.25547 3.8994 7.25547 3.8994 7.25547C3.8994 7.25547 3.89939 7.25547 3.89938 7.25547C3.89937 7.25546 3.89936 7.25546 3.89935 7.25546C3.89934 7.25546 3.89932 7.25545 3.96484 7.01419C4.03036 6.77293 4.03034 6.77292 4.03032 6.77292C4.03031 6.77291 4.03029 6.77291 4.03027 6.7729C4.03023 6.77289 4.03019 6.77288 4.03014 6.77287C4.03004 6.77284 4.02992 6.77281 4.02977 6.77277C4.02947 6.77269 4.02908 6.77258 4.02859 6.77245C4.02762 6.77219 4.02626 6.77183 4.02455 6.77137C4.02112 6.77046 4.01624 6.76917 4.01004 6.76756C3.99765 6.76434 3.97997 6.75982 3.95807 6.75444C3.91437 6.74371 3.85338 6.7294 3.78387 6.71506C3.64994 6.68742 3.46574 6.6556 3.31233 6.6556V7.1556ZM3.04475 6.61756C2.79508 6.63048 2.79509 6.63059 2.79509 6.6307C2.79509 6.63073 2.7951 6.63084 2.7951 6.63092C2.79511 6.63107 2.79512 6.63123 2.79513 6.63139C2.79515 6.63171 2.79517 6.63206 2.79519 6.63242C2.79523 6.63314 2.79528 6.63395 2.79534 6.63482C2.79545 6.63658 2.7956 6.63863 2.79579 6.64097C2.79617 6.64565 2.79672 6.6515 2.7975 6.65835C2.79906 6.67199 2.80161 6.69004 2.80578 6.71111C2.8139 6.75212 2.82929 6.8104 2.85932 6.87165C2.9231 7.00171 3.06331 7.1556 3.31233 7.1556V6.6556C3.3002 6.6556 3.30399 6.65331 3.31149 6.65879C3.3159 6.66202 3.31349 6.6622 3.30825 6.65151C3.30297 6.64075 3.29884 6.62702 3.29626 6.61402C3.29509 6.60809 3.2945 6.60363 3.29426 6.60152C3.29414 6.6005 3.29412 6.60015 3.29416 6.60061C3.29418 6.60084 3.29421 6.60128 3.29425 6.60194C3.29428 6.60228 3.2943 6.60266 3.29433 6.60311C3.29434 6.60334 3.29435 6.60357 3.29437 6.60383C3.29438 6.60396 3.29438 6.60409 3.29439 6.60422C3.29439 6.60429 3.2944 6.60439 3.2944 6.60443C3.29441 6.60453 3.29441 6.60464 3.04475 6.61756ZM2.82024 7.10415L3.19667 6.8161L2.89282 6.41901L2.51639 6.70706L2.82024 7.10415ZM9.20009 7.4586L8.95557 6.84972L8.49159 7.03605L8.7361 7.64493L9.20009 7.4586ZM7.99512 7.80177H8.9681V7.30177H7.99512V7.80177ZM7.74512 5.10742V7.55177H8.24512V5.10742H7.74512ZM8.48175 5.0007L8.07134 4.86932L7.9189 5.34552L8.32931 5.4769L8.48175 5.0007ZM8.65553 6.94289V5.2388H8.15553V6.94289H8.65553ZM8.72358 6.69289H8.40553V7.19289H8.72358V6.69289ZM13.7323 7.4586L13.4878 6.84972L13.0238 7.03605L13.2683 7.64493L13.7323 7.4586ZM12.5273 7.80177H13.5003V7.30177H12.5273V7.80177ZM12.2773 5.10742V7.55177H12.7773V5.10742H12.2773ZM13.014 5.0007L12.6036 4.86932L12.4511 5.34552L12.8615 5.4769L13.014 5.0007ZM13.1878 6.94289V5.2388H12.6878V6.94289H13.1878ZM13.2558 6.69289H12.9378V7.19289H13.2558V6.69289ZM11.9374 5.51111L12.1909 5.33951L11.9106 4.92545L11.6571 5.09704L11.9374 5.51111ZM12.0472 6.94097V5.30407H11.5472V6.94097H12.0472ZM11.539 7.19097H11.7972V6.69097H11.539V7.19097ZM11.289 5.62814V6.94097H11.789V5.62814H11.289ZM11.2384 6.08999L11.6638 5.84473L11.4141 5.41156L10.9887 5.65682L11.2384 6.08999ZM11.3636 6.94097V5.8734H10.8636V6.94097H11.3636ZM10.8281 7.19097H11.1136V6.69097H10.8281V7.19097ZM10.5781 6.19975V6.94097H11.0781V6.19975H10.5781ZM10.64 6.61811L10.9634 6.40997L10.6928 5.98953L10.3694 6.19766L10.64 6.61811ZM10.7547 6.6091V6.40788H10.2547V6.6091H10.7547ZM10.1327 7.53142C10.1327 7.15863 10.2602 7.0053 10.3469 6.938C10.3957 6.90019 10.4444 6.87964 10.4803 6.8687C10.4981 6.86328 10.512 6.86047 10.5199 6.85913C10.5238 6.85847 10.5261 6.85819 10.5265 6.85813C10.5268 6.85811 10.5265 6.85814 10.5258 6.85821C10.5254 6.85824 10.5249 6.85829 10.5242 6.85834C10.5239 6.85836 10.5236 6.85839 10.5232 6.85842C10.523 6.85843 10.5228 6.85845 10.5226 6.85846C10.5225 6.85847 10.5223 6.85848 10.5222 6.85849C10.5221 6.8585 10.5219 6.85851 10.5047 6.6091C10.4875 6.35969 10.4873 6.35971 10.4872 6.35972C10.4871 6.35972 10.4869 6.35974 10.4868 6.35974C10.4865 6.35976 10.4863 6.35978 10.486 6.3598C10.4855 6.35984 10.4849 6.35989 10.4843 6.35994C10.483 6.36004 10.4816 6.36016 10.4801 6.3603C10.477 6.36058 10.4732 6.36096 10.4689 6.36147C10.4602 6.36247 10.4492 6.36397 10.4361 6.3662C10.41 6.37064 10.3752 6.37805 10.3347 6.39039C10.2539 6.41498 10.1472 6.46011 10.0404 6.54295C9.81617 6.71694 9.63267 7.02477 9.63267 7.53142H10.1327ZM12.0482 7.28142H9.88267V7.78142H12.0482V7.28142ZM11.8007 5.13222L11.7982 7.53115L12.2982 7.53168L12.3007 5.13274L11.8007 5.13222ZM3.63752 7.8578C3.63752 7.81241 3.65893 7.7779 3.68059 7.75878C3.70177 7.74009 3.72559 7.73282 3.74589 7.73282V8.23282C3.93198 8.23282 4.13752 8.0933 4.13752 7.8578H3.63752ZM3.74589 7.98277C3.72559 7.98277 3.70177 7.97551 3.68059 7.95681C3.65893 7.93769 3.63752 7.90318 3.63752 7.8578H4.13752C4.13752 7.62229 3.93198 7.48277 3.74589 7.48277V7.98277ZM3.85426 7.8578C3.85426 7.90318 3.83285 7.93769 3.81119 7.95681C3.79001 7.97551 3.76619 7.98277 3.74589 7.98277V7.48277C3.55981 7.48277 3.35426 7.62229 3.35426 7.8578H3.85426ZM3.74589 7.73282C3.76619 7.73282 3.79001 7.74009 3.81119 7.75878C3.83285 7.7779 3.85426 7.81241 3.85426 7.8578H3.35426C3.35426 8.0933 3.55981 8.23282 3.74589 8.23282V7.73282ZM10.5136 5.32083C10.414 5.55013 10.414 5.55016 10.4141 5.55018C10.4141 5.55019 10.4142 5.55022 10.4142 5.55024C10.4143 5.55027 10.4144 5.55031 10.4145 5.55035C10.4147 5.55043 10.4149 5.55052 10.4151 5.55062C10.4156 5.55082 10.4161 5.55105 10.4167 5.55132C10.418 5.55185 10.4196 5.55252 10.4215 5.5533C10.4252 5.55488 10.4303 5.55694 10.4365 5.55937C10.4488 5.56422 10.4658 5.57064 10.4863 5.57768C10.5265 5.59149 10.584 5.60896 10.6484 5.62095C10.7104 5.63252 10.7927 5.64172 10.8775 5.62939C10.9638 5.61684 11.0761 5.57784 11.1564 5.47191L10.7581 5.16975C10.7834 5.1363 10.8128 5.13354 10.8056 5.13458C10.7969 5.13584 10.7752 5.13598 10.74 5.12943C10.7072 5.1233 10.6743 5.11359 10.6486 5.10475C10.6361 5.10046 10.6262 5.09669 10.6198 5.09418C10.6166 5.09294 10.6144 5.09202 10.6132 5.09154C10.6127 5.0913 10.6124 5.09117 10.6123 5.09117C10.6123 5.09116 10.6124 5.09119 10.6125 5.09125C10.6126 5.09128 10.6127 5.09132 10.6128 5.09136C10.6128 5.09139 10.6129 5.09141 10.613 5.09144C10.613 5.09145 10.6131 5.09147 10.6131 5.09148C10.6131 5.0915 10.6132 5.09153 10.5136 5.32083ZM11.4311 4.96286L10.4848 5.07249L10.5423 5.56917L11.4886 5.45954L11.4311 4.96286ZM10.9573 5.32083C10.9081 5.56595 10.9082 5.56597 10.9082 5.56598C10.9083 5.56598 10.9083 5.566 10.9084 5.56601C10.9085 5.56602 10.9086 5.56604 10.9087 5.56607C10.9089 5.56611 10.9091 5.56615 10.9094 5.56621C10.9099 5.56631 10.9105 5.56643 10.9113 5.56657C10.9127 5.56685 10.9145 5.56719 10.9168 5.5676C10.9212 5.56841 10.9271 5.56946 10.9344 5.57065C10.9489 5.57303 10.9689 5.57601 10.9929 5.57883C11.0402 5.58437 11.1069 5.58972 11.1798 5.58744C11.2505 5.58522 11.3402 5.57549 11.4272 5.54315C11.5155 5.51033 11.6203 5.44637 11.6824 5.32517L11.2374 5.09722C11.2506 5.07142 11.2681 5.06886 11.253 5.07449C11.2366 5.08059 11.2068 5.08634 11.1641 5.08768C11.1235 5.08896 11.0828 5.08594 11.0511 5.08223C11.0357 5.08042 11.0233 5.07856 11.0153 5.07724C11.0113 5.07658 11.0084 5.07608 11.0069 5.07579C11.0061 5.07565 11.0057 5.07556 11.0056 5.07555C11.0055 5.07554 11.0056 5.07555 11.0057 5.07557C11.0058 5.07558 11.0059 5.0756 11.006 5.07562C11.006 5.07564 11.0061 5.07565 11.0062 5.07566C11.0062 5.07567 11.0063 5.07568 11.0063 5.07568C11.0063 5.07569 11.0064 5.07571 10.9573 5.32083Z" fill="#009C4E"/>
    </g>
  </g>
</svg>
