<svg width="16" height="13" viewBox="0 0 16 13" fill="none"
  xmlns="http://www.w3.org/2000/svg">
  <mask id="mask0_103_2699" style="mask-type:luminance" maskUnits="userSpaceOnUse" x="0" y="0" width="16" height="13">
    <rect y="0.5" width="16" height="12" fill="white"/>
  </mask>
  <g mask="url(#mask0_103_2699)">
    <path fill-rule="evenodd" clip-rule="evenodd" d="M0 0.5V12.5H16V0.5H0Z" fill="#2E42A5"/>
    <mask id="mask1_103_2699" style="mask-type:luminance" maskUnits="userSpaceOnUse" x="0" y="0" width="16" height="13">
      <path fill-rule="evenodd" clip-rule="evenodd" d="M0 0.5V12.5H16V0.5H0Z" fill="white"/>
    </mask>
    <g mask="url(#mask1_103_2699)">
      <mask id="mask2_103_2699" style="mask-type:luminance" maskUnits="userSpaceOnUse" x="0" y="0" width="16" height="13">
        <rect y="0.5" width="16" height="12" fill="white"/>
      </mask>
      <g mask="url(#mask2_103_2699)">
        <path d="M-1.78198 11.6429L1.73886 13.1319L16.0795 2.11912L17.9366 -0.0936232L14.1716 -0.591301L8.32241 4.15443L3.61441 7.35195L-1.78198 11.6429Z" fill="white"/>
        <path d="M-1.29956 12.6862L0.494147 13.5503L17.2702 -0.299177H14.7516L-1.29956 12.6862Z" fill="#F50100"/>
        <path d="M17.7811 11.6429L14.2603 13.1319L-0.0803356 2.11912L-1.9375 -0.0936232L1.82754 -0.591301L7.67673 4.15443L12.3847 7.35195L17.7811 11.6429Z" fill="white"/>
        <path d="M17.661 12.3916L15.8673 13.2557L8.7239 7.32606L6.60604 6.66355L-2.11618 -0.0860481H0.402391L9.11971 6.50334L11.4352 7.29776L17.661 12.3916Z" fill="#F50100"/>
        <mask id="path-9-inside-1_103_2699" fill="white">
          <path fill-rule="evenodd" clip-rule="evenodd" d="M9.88911 -0.5H6.11133V4.5H-0.986328V8.5H6.11133V13.5H9.88911V8.5H17.0137V4.5H9.88911V-0.5Z"/>
        </mask>
        <path fill-rule="evenodd" clip-rule="evenodd" d="M9.88911 -0.5H6.11133V4.5H-0.986328V8.5H6.11133V13.5H9.88911V8.5H17.0137V4.5H9.88911V-0.5Z" fill="#F50100"/>
        <path d="M6.11133 -0.5V-1.5H5.11133V-0.5H6.11133ZM9.88911 -0.5H10.8891V-1.5H9.88911V-0.5ZM6.11133 4.5V5.5H7.11133V4.5H6.11133ZM-0.986328 4.5V3.5H-1.98633V4.5H-0.986328ZM-0.986328 8.5H-1.98633V9.5H-0.986328V8.5ZM6.11133 8.5H7.11133V7.5H6.11133V8.5ZM6.11133 13.5H5.11133V14.5H6.11133V13.5ZM9.88911 13.5V14.5H10.8891V13.5H9.88911ZM9.88911 8.5V7.5H8.88911V8.5H9.88911ZM17.0137 8.5V9.5H18.0137V8.5H17.0137ZM17.0137 4.5H18.0137V3.5H17.0137V4.5ZM9.88911 4.5H8.88911V5.5H9.88911V4.5ZM6.11133 0.5H9.88911V-1.5H6.11133V0.5ZM7.11133 4.5V-0.5H5.11133V4.5H7.11133ZM-0.986328 5.5H6.11133V3.5H-0.986328V5.5ZM0.0136719 8.5V4.5H-1.98633V8.5H0.0136719ZM6.11133 7.5H-0.986328V9.5H6.11133V7.5ZM7.11133 13.5V8.5H5.11133V13.5H7.11133ZM9.88911 12.5H6.11133V14.5H9.88911V12.5ZM8.88911 8.5V13.5H10.8891V8.5H8.88911ZM17.0137 7.5H9.88911V9.5H17.0137V7.5ZM16.0137 4.5V8.5H18.0137V4.5H16.0137ZM9.88911 5.5H17.0137V3.5H9.88911V5.5ZM8.88911 -0.5V4.5H10.8891V-0.5H8.88911Z" fill="white" mask="url(#path-9-inside-1_103_2699)"/>
      </g>
    </g>
  </g>
</svg>
