<svg width="25" height="25" viewBox="0 0 25 25" fill="none"
  xmlns="http://www.w3.org/2000/svg">
  <g clip-path="url(#clip0_150_51)">
    <path fill-rule="evenodd" clip-rule="evenodd" d="M13.9744 10.0867L11.7133 7.96784C12.0948 7.87206 12.4879 7.82279 12.8828 7.82125C13.6316 7.81014 14.373 7.96227 15.0488 8.26569C15.7246 8.56911 16.3164 9.01558 16.7778 9.57007C17.2393 10.1246 17.5578 10.772 17.7084 11.4617C17.859 12.1513 17.8377 12.8643 17.646 13.5449L15.392 11.4194L13.9744 10.0867ZM4.9088 7.36149L1.98145 4.61626L3.51955 3.15703L22.8556 21.3475L21.3246 22.7934L17.5963 19.2886C14.4137 20.4636 10.8649 20.4021 7.73059 19.1175C4.59624 17.8329 2.13304 15.4306 0.882812 12.4388C1.71669 10.4379 3.10716 8.6843 4.9088 7.36149ZM8.36775 10.6131L6.45399 8.82072C5.10191 9.77496 4.00698 11.0142 3.2573 12.4388C4.13525 14.1316 5.50221 15.558 7.20187 16.5548C8.90154 17.5517 10.8653 18.0788 12.8686 18.0759C13.8819 18.0735 14.8903 17.9436 15.8669 17.6894L14.7966 16.6833L14.754 16.6433C14.0115 16.9398 13.2024 17.0585 12.3991 16.9888C11.5957 16.9191 10.8234 16.6631 10.1512 16.2438C9.47895 15.8245 8.92789 15.255 8.54737 14.5863C8.16685 13.9176 7.96875 13.1705 7.97082 12.4122C7.96733 11.7929 8.10258 11.18 8.36775 10.6131ZM18.5591 8.31109C16.8571 7.3124 14.8892 6.78684 12.8829 6.79512C12.1537 6.80278 11.4271 6.87867 10.7139 7.02167L8.91357 5.32922C12.0392 4.37923 15.4324 4.58337 18.4037 5.90017C21.3751 7.21697 23.7018 9.54768 24.9112 12.4188C24.1658 14.2117 22.975 15.811 21.4381 17.0831L19.8716 15.6371C20.974 14.7534 21.8694 13.6644 22.5013 12.4388C21.6279 10.7408 20.2612 9.30977 18.5591 8.31109Z" fill="#C2C7CC"/>
  </g>
  <defs>
    <clipPath id="clip0_150_51">
      <rect width="24" height="24" fill="white" transform="translate(0.882812 0.776367)"/>
    </clipPath>
  </defs>
</svg>
