<svg width="16" height="13" viewBox="0 0 16 13" fill="none"
  xmlns="http://www.w3.org/2000/svg">
  <mask id="mask0_103_2579" style="mask-type:luminance" maskUnits="userSpaceOnUse" x="0" y="0" width="16" height="13">
    <rect y="0.5" width="16" height="12" fill="white"/>
  </mask>
  <g mask="url(#mask0_103_2579)">
    <path fill-rule="evenodd" clip-rule="evenodd" d="M0 0.5V12.5H16V0.5H0Z" fill="#F7FCFF"/>
    <mask id="mask1_103_2579" style="mask-type:luminance" maskUnits="userSpaceOnUse" x="0" y="0" width="16" height="13">
      <path fill-rule="evenodd" clip-rule="evenodd" d="M0 0.5V12.5H16V0.5H0Z" fill="white"/>
    </mask>
    <g mask="url(#mask1_103_2579)">
      <path fill-rule="evenodd" clip-rule="evenodd" d="M0 0.5V4.5H16V0.5H0Z" fill="#5EAA22"/>
      <path fill-rule="evenodd" clip-rule="evenodd" d="M0 8.5V12.5H16V8.5H0Z" fill="#E31D1C"/>
      <path d="M0.185975 9.18347H-0.95105" stroke="#F7FCFF" stroke-width="0.5"/>
      <path d="M-0.962769 9.63373V9.37273H-0.592635V9.62497H-0.218621V9.37301H-0.412665" stroke="#F7FCFF" stroke-width="0.5"/>
      <path d="M0.169059 9.62305H-0.0194092V9.37814H0.377406V9.17751V9.62305H0.556974V9.17751" stroke="#F7FCFF" stroke-width="0.5"/>
      <path d="M0.759024 9.20401C0.759024 9.22863 0.759024 9.62493 0.759024 9.62493H0.572632" stroke="#F7FCFF" stroke-width="0.5"/>
      <path d="M2.13715 9.18347H1.00012" stroke="#F7FCFF" stroke-width="0.5"/>
      <path d="M0.988403 9.63373V9.37273H1.35854V9.62497H1.73255V9.37301H1.53851" stroke="#F7FCFF" stroke-width="0.5"/>
      <path d="M2.15514 9.62305H1.96667V9.37814H2.36349V9.17751V9.62305H2.54306V9.17751" stroke="#F7FCFF" stroke-width="0.5"/>
      <path d="M2.74511 9.20401C2.74511 9.22863 2.74511 9.62493 2.74511 9.62493H2.55872" stroke="#F7FCFF" stroke-width="0.5"/>
      <path d="M4.12323 9.18347H2.98621" stroke="#F7FCFF" stroke-width="0.5"/>
      <path d="M2.97449 9.63373V9.37273H3.34462V9.62497H3.71863V9.37301H3.52459" stroke="#F7FCFF" stroke-width="0.5"/>
      <path d="M4.10644 9.62305H3.91797V9.37814H4.31478V9.17751V9.62305H4.49435V9.17751" stroke="#F7FCFF" stroke-width="0.5"/>
      <path d="M4.6964 9.20401C4.6964 9.22863 4.6964 9.62493 4.6964 9.62493H4.51001" stroke="#F7FCFF" stroke-width="0.5"/>
      <path d="M6.07453 9.18347H4.9375" stroke="#F7FCFF" stroke-width="0.5"/>
      <path d="M4.92578 9.63373V9.37273H5.29591V9.62497H5.66993V9.37301H5.47588" stroke="#F7FCFF" stroke-width="0.5"/>
      <path d="M6.05761 9.62305H5.86914V9.37814H6.26596V9.17751V9.62305H6.44552V9.17751" stroke="#F7FCFF" stroke-width="0.5"/>
      <path d="M6.64757 9.20401C6.64757 9.22863 6.64757 9.62493 6.64757 9.62493H6.46118" stroke="#F7FCFF" stroke-width="0.5"/>
      <path d="M8.0257 9.18347H6.88867" stroke="#F7FCFF" stroke-width="0.5"/>
      <path d="M6.87695 9.63373V9.37273H7.24709V9.62497H7.6211V9.37301H7.42706" stroke="#F7FCFF" stroke-width="0.5"/>
      <path d="M8.04406 9.62305H7.85559V9.37814H8.25241V9.17751V9.62305H8.43197V9.17751" stroke="#F7FCFF" stroke-width="0.5"/>
      <path d="M8.63402 9.20401C8.63402 9.22863 8.63402 9.62493 8.63402 9.62493H8.44763" stroke="#F7FCFF" stroke-width="0.5"/>
      <path d="M10.0121 9.18347H8.87512" stroke="#F7FCFF" stroke-width="0.5"/>
      <path d="M8.8634 9.63373V9.37273H9.23354V9.62497H9.60755V9.37301H9.41351" stroke="#F7FCFF" stroke-width="0.5"/>
      <path d="M10.0294 9.62305H9.84094V9.37814H10.2378V9.17751V9.62305H10.4173V9.17751" stroke="#F7FCFF" stroke-width="0.5"/>
      <path d="M10.6194 9.20401C10.6194 9.22863 10.6194 9.62493 10.6194 9.62493H10.433" stroke="#F7FCFF" stroke-width="0.5"/>
      <path d="M11.9975 9.18347H10.8605" stroke="#F7FCFF" stroke-width="0.5"/>
      <path d="M10.8488 9.63373V9.37273H11.2189V9.62497H11.5929V9.37301H11.3989" stroke="#F7FCFF" stroke-width="0.5"/>
      <path d="M12.0157 9.62305H11.8273V9.37814H12.2241V9.17751V9.62305H12.4037V9.17751" stroke="#F7FCFF" stroke-width="0.5"/>
      <path d="M12.6057 9.20401C12.6057 9.22863 12.6057 9.62493 12.6057 9.62493H12.4193" stroke="#F7FCFF" stroke-width="0.5"/>
      <path d="M13.9838 9.18347H12.8468" stroke="#F7FCFF" stroke-width="0.5"/>
      <path d="M12.8351 9.63373V9.37273H13.2052V9.62497H13.5792V9.37301H13.3852" stroke="#F7FCFF" stroke-width="0.5"/>
      <path d="M13.967 9.62305H13.7786V9.37814H14.1754V9.17751V9.62305H14.3549V9.17751" stroke="#F7FCFF" stroke-width="0.5"/>
      <path d="M14.557 9.20401C14.557 9.22863 14.557 9.62493 14.557 9.62493H14.3706" stroke="#F7FCFF" stroke-width="0.5"/>
      <path d="M15.9351 9.18347H14.7981" stroke="#F7FCFF" stroke-width="0.5"/>
      <path d="M14.7864 9.63373V9.37273H15.1565V9.62497H15.5305V9.37301H15.3365" stroke="#F7FCFF" stroke-width="0.5"/>
      <path d="M16.0228 9.62305H15.8344V9.37814H16.2312V9.17751V9.62305H16.4107V9.17751" stroke="#F7FCFF" stroke-width="0.5"/>
      <path d="M0.185975 3.08346H-0.95105" stroke="#F7FCFF" stroke-width="0.5"/>
      <path d="M-0.962769 3.53372V3.27272H-0.592635V3.52496H-0.218621V3.273H-0.412665" stroke="#F7FCFF" stroke-width="0.5"/>
      <path d="M0.169059 3.52304H-0.0194092V3.27813H0.377406V3.0775V3.52304H0.556974V3.0775" stroke="#F7FCFF" stroke-width="0.5"/>
      <path d="M0.759024 3.104C0.759024 3.12863 0.759024 3.52492 0.759024 3.52492H0.572632" stroke="#F7FCFF" stroke-width="0.5"/>
      <path d="M2.13715 3.08346H1.00012" stroke="#F7FCFF" stroke-width="0.5"/>
      <path d="M0.988403 3.53372V3.27272H1.35854V3.52496H1.73255V3.273H1.53851" stroke="#F7FCFF" stroke-width="0.5"/>
      <path d="M2.15514 3.52304H1.96667V3.27813H2.36349V3.0775V3.52304H2.54306V3.0775" stroke="#F7FCFF" stroke-width="0.5"/>
      <path d="M2.74511 3.104C2.74511 3.12863 2.74511 3.52492 2.74511 3.52492H2.55872" stroke="#F7FCFF" stroke-width="0.5"/>
      <path d="M4.12323 3.08346H2.98621" stroke="#F7FCFF" stroke-width="0.5"/>
      <path d="M2.97449 3.53372V3.27272H3.34462V3.52496H3.71863V3.273H3.52459" stroke="#F7FCFF" stroke-width="0.5"/>
      <path d="M4.10644 3.52304H3.91797V3.27813H4.31478V3.0775V3.52304H4.49435V3.0775" stroke="#F7FCFF" stroke-width="0.5"/>
      <path d="M4.6964 3.104C4.6964 3.12863 4.6964 3.52492 4.6964 3.52492H4.51001" stroke="#F7FCFF" stroke-width="0.5"/>
      <path d="M6.07453 3.08346H4.9375" stroke="#F7FCFF" stroke-width="0.5"/>
      <path d="M4.92578 3.53372V3.27272H5.29591V3.52496H5.66993V3.273H5.47588" stroke="#F7FCFF" stroke-width="0.5"/>
      <path d="M6.05761 3.52304H5.86914V3.27813H6.26596V3.0775V3.52304H6.44552V3.0775" stroke="#F7FCFF" stroke-width="0.5"/>
      <path d="M6.64757 3.104C6.64757 3.12863 6.64757 3.52492 6.64757 3.52492H6.46118" stroke="#F7FCFF" stroke-width="0.5"/>
      <path d="M8.0257 3.08346H6.88867" stroke="#F7FCFF" stroke-width="0.5"/>
      <path d="M6.87695 3.53372V3.27272H7.24709V3.52496H7.6211V3.273H7.42706" stroke="#F7FCFF" stroke-width="0.5"/>
      <path d="M8.04406 3.52304H7.85559V3.27813H8.25241V3.0775V3.52304H8.43197V3.0775" stroke="#F7FCFF" stroke-width="0.5"/>
      <path d="M8.63402 3.104C8.63402 3.12863 8.63402 3.52492 8.63402 3.52492H8.44763" stroke="#F7FCFF" stroke-width="0.5"/>
      <path d="M10.0121 3.08346H8.87512" stroke="#F7FCFF" stroke-width="0.5"/>
      <path d="M8.8634 3.53372V3.27272H9.23354V3.52496H9.60755V3.273H9.41351" stroke="#F7FCFF" stroke-width="0.5"/>
      <path d="M10.0294 3.52304H9.84094V3.27813H10.2378V3.0775V3.52304H10.4173V3.0775" stroke="#F7FCFF" stroke-width="0.5"/>
      <path d="M10.6194 3.104C10.6194 3.12863 10.6194 3.52492 10.6194 3.52492H10.433" stroke="#F7FCFF" stroke-width="0.5"/>
      <path d="M11.9975 3.08346H10.8605" stroke="#F7FCFF" stroke-width="0.5"/>
      <path d="M10.8488 3.53372V3.27272H11.2189V3.52496H11.5929V3.273H11.3989" stroke="#F7FCFF" stroke-width="0.5"/>
      <path d="M12.0157 3.52304H11.8273V3.27813H12.2241V3.0775V3.52304H12.4037V3.0775" stroke="#F7FCFF" stroke-width="0.5"/>
      <path d="M12.6057 3.104C12.6057 3.12863 12.6057 3.52492 12.6057 3.52492H12.4193" stroke="#F7FCFF" stroke-width="0.5"/>
      <path d="M13.9838 3.08346H12.8468" stroke="#F7FCFF" stroke-width="0.5"/>
      <path d="M12.8351 3.53372V3.27272H13.2052V3.52496H13.5792V3.273H13.3852" stroke="#F7FCFF" stroke-width="0.5"/>
      <path d="M13.967 3.52304H13.7786V3.27813H14.1754V3.0775V3.52304H14.3549V3.0775" stroke="#F7FCFF" stroke-width="0.5"/>
      <path d="M14.557 3.104C14.557 3.12863 14.557 3.52492 14.557 3.52492H14.3706" stroke="#F7FCFF" stroke-width="0.5"/>
      <path d="M15.9351 3.08346H14.7981" stroke="#F7FCFF" stroke-width="0.5"/>
      <path d="M14.7864 3.53372V3.27272H15.1565V3.52496H15.5305V3.273H15.3365" stroke="#F7FCFF" stroke-width="0.5"/>
      <path d="M16.0228 3.52304H15.8344V3.27813H16.2312V3.0775V3.52304H16.4107V3.0775" stroke="#F7FCFF" stroke-width="0.5"/>
      <path fill-rule="evenodd" clip-rule="evenodd" d="M7.30383 4.62477C7.30383 4.62477 7.5175 4.73727 7.73619 4.73727C7.95487 4.73727 8.17491 4.62477 8.17491 4.62477V4.77477C8.17491 4.77477 7.9347 4.88727 7.72195 4.88727C7.5092 4.88727 7.30383 4.77477 7.30383 4.77477V4.62477ZM9.84778 6.34582C9.84778 5.45682 8.62793 4.92458 8.62793 4.92458C8.62793 4.92458 9.33364 5.30268 9.33364 6.35762C9.33364 7.41256 8.96729 7.86941 8.96729 7.86941C8.96729 7.86941 9.84778 7.23482 9.84778 6.34582ZM5.72864 6.39507C5.72864 5.50607 6.94963 4.92477 6.94963 4.92477C6.94963 4.92477 6.24392 5.30287 6.24392 6.35782C6.24392 7.41276 6.61027 7.8696 6.61027 7.8696C6.61027 7.8696 5.72864 7.28407 5.72864 6.39507ZM6.5618 6.58833C6.51527 5.70054 7.25381 4.90479 7.25381 4.90479C7.25381 4.90479 6.985 5.27046 7.04021 6.32395C7.0592 6.68621 7.20207 7.22545 7.38196 7.54254V4.96217H8.13196V7.56215C8.31131 7.2656 8.44942 6.76126 8.46862 6.39483C8.52383 5.34134 8.26792 4.90479 8.26792 4.90479C8.26792 4.90479 9.00645 5.70054 8.95993 6.58833C8.93222 7.11706 8.52537 7.67625 8.20082 8.04206C8.35852 8.07723 8.5699 8.1201 8.86047 8.17747C8.86667 8.20961 8.80193 8.20812 8.67327 8.20516C8.53122 8.20189 8.31125 8.19684 8.02286 8.23328C7.89027 8.36917 7.79799 8.44973 7.79799 8.44973C7.79799 8.44973 7.7834 8.43001 7.76086 8.40275C7.73833 8.43001 7.72374 8.44973 7.72374 8.44973C7.72374 8.44973 7.63146 8.36917 7.49887 8.23328C7.21048 8.19684 6.99051 8.20189 6.84846 8.20516C6.7198 8.20812 6.65505 8.20961 6.66125 8.17747C6.95183 8.1201 7.16321 8.07723 7.32091 8.04206C6.99636 7.67625 6.58951 7.11706 6.5618 6.58833Z" fill="#E31D1C"/>
    </g>
  </g>
</svg>
