<svg width="16" height="12" viewBox="0 0 16 12" fill="none"
  xmlns="http://www.w3.org/2000/svg">
  <mask id="mask0_103_3074" style="mask-type:luminance" maskUnits="userSpaceOnUse" x="0" y="0" width="16" height="12">
    <rect width="16" height="12" fill="white"/>
  </mask>
  <g mask="url(#mask0_103_3074)">
    <path fill-rule="evenodd" clip-rule="evenodd" d="M0 0V12H16V0H0Z" fill="#E31D1C"/>
    <mask id="mask1_103_3074" style="mask-type:luminance" maskUnits="userSpaceOnUse" x="0" y="0" width="16" height="12">
      <path fill-rule="evenodd" clip-rule="evenodd" d="M0 0V12H16V0H0Z" fill="white"/>
    </mask>
    <g mask="url(#mask1_103_3074)">
      <path fill-rule="evenodd" clip-rule="evenodd" d="M8.01267 8.05676C6.94201 7.793 6.10345 6.89684 6.11318 5.58316C6.12229 4.35346 6.86682 3.31403 8.04379 3.03265C9.22077 2.75127 10.257 3.34858 10.257 3.34858C9.93171 2.58067 8.8016 2.04119 7.8751 2.04275C6.15049 2.04563 4.31205 3.44426 4.29621 5.58316C4.27978 7.80066 6.2649 9.06353 8.01081 9.06061C9.41044 9.05826 10.0743 8.10069 10.2118 7.69334C10.2118 7.69334 9.08333 8.32052 8.01267 8.05676ZM10.4519 5.1634L9.38516 5.55523L10.5888 5.97983L10.5682 7.24852L11.3613 6.29672L12.6714 6.39191L11.6332 5.49954L12.3148 4.54764L11.205 4.92113L10.4118 4.03933L10.4519 5.1634Z" fill="#F7FCFF"/>
    </g>
  </g>
</svg>
