<svg width="24" height="24" viewBox="0 0 24 24" fill="none"
  xmlns="http://www.w3.org/2000/svg">
  <g clip-path="url(#clip0_103_2567)">
    <path d="M11.9902 1.99988C6.47024 1.99988 2.00024 6.47988 2.00024 11.9999C2.00024 17.5199 6.47024 21.9999 11.9902 21.9999C17.5202 21.9999 22.0002 17.5199 22.0002 11.9999C22.0002 6.47988 17.5202 1.99988 11.9902 1.99988ZM18.9202 7.99988H15.9702C15.6502 6.74988 15.1902 5.54988 14.5902 4.43988C16.4302 5.06988 17.9602 6.34988 18.9202 7.99988ZM12.0002 4.03988C12.8302 5.23988 13.4802 6.56988 13.9102 7.99988H10.0902C10.5202 6.56988 11.1702 5.23988 12.0002 4.03988ZM4.26024 13.9999C4.10024 13.3599 4.00024 12.6899 4.00024 11.9999C4.00024 11.3099 4.10024 10.6399 4.26024 9.99988H7.64024C7.56024 10.6599 7.50024 11.3199 7.50024 11.9999C7.50024 12.6799 7.56024 13.3399 7.64024 13.9999H4.26024ZM5.08024 15.9999H8.03024C8.35024 17.2499 8.81024 18.4499 9.41024 19.5599C7.57024 18.9299 6.04024 17.6599 5.08024 15.9999ZM8.03024 7.99988H5.08024C6.04024 6.33988 7.57024 5.06988 9.41024 4.43988C8.81024 5.54988 8.35024 6.74988 8.03024 7.99988ZM12.0002 19.9599C11.1702 18.7599 10.5202 17.4299 10.0902 15.9999H13.9102C13.4802 17.4299 12.8302 18.7599 12.0002 19.9599ZM14.3402 13.9999H9.66024C9.57024 13.3399 9.50024 12.6799 9.50024 11.9999C9.50024 11.3199 9.57024 10.6499 9.66024 9.99988H14.3402C14.4302 10.6499 14.5002 11.3199 14.5002 11.9999C14.5002 12.6799 14.4302 13.3399 14.3402 13.9999ZM14.5902 19.5599C15.1902 18.4499 15.6502 17.2499 15.9702 15.9999H18.9202C17.9602 17.6499 16.4302 18.9299 14.5902 19.5599ZM16.3602 13.9999C16.4402 13.3399 16.5002 12.6799 16.5002 11.9999C16.5002 11.3199 16.4402 10.6599 16.3602 9.99988H19.7402C19.9002 10.6399 20.0002 11.3099 20.0002 11.9999C20.0002 12.6899 19.9002 13.3599 19.7402 13.9999H16.3602Z" fill="black"/>
  </g>
  <defs>
    <clipPath id="clip0_103_2567">
      <rect width="24" height="24" fill="white"/>
    </clipPath>
  </defs>
</svg>
